# xmcd
#
# Track frame offsets:
#       150
#       25120
#       43312
#       70165
#       89537
#       114640
#       137365
#       172537
#       204470
#       238417
#       268542
#       294472
#       313545
#
# Disc length: 4441 seconds
#
# Revision: 0
# Processed by: cddbd v1.5.1PL0 Copyright (c) Steve Scherf et al.
# Submitted via: WhereIsIt 3.60
#
DISCID=b511570d
DTITLE=Stickman Musica
DYEAR=1996
DGENRE=
TTITLE0=Zig Zag - Heaven
TTITLE1=The Captain - Jazzy 4 You
TTITLE2=Engine-O - D and B
TTITLE3=The Stickmen - Summer Of 87
TTITLE4=Biotrans - Klente
TTITLE5=The Stickmen - Jump
TTITLE6=The Tamburi Project - Tamburi (Josh Wink Remix)
TTITLE7=Cappio Bros. - Caffeine 4 Daze
TTITLE8=Nick Holder - Fear Of The Future
TTITLE9=Biotrans - Frehnor
TTITLE10=P.J. - Elysian Fields
TTITLE11=611 Grooves - I Like It
TTITLE12=Engine-O - Snakecharm
EXTD=
EXTT0=
EXTT1=
EXTT2=
EXTT3=
EXTT4=
EXTT5=
EXTT6=
EXTT7=
EXTT8=
EXTT9=
EXTT10=
EXTT11=
EXTT12=
PLAYORDER=
